# xmcd CD database file
#
# Track frame offsets:
#	225
#	11140
#	23010
#	34110
#	46150
#	62312
#	75795
#	88017
#	98857
#	110072
#	126550
#	139172
#	152295
#	168360
#
# Disc length: 2414 seconds
#
# Revision: 0
# Processed by: cddbd v1.5.2PL0 Copyright (c) Steve Scherf et al.
# Submitted via: CDex 1.70beta2
#
DISCID=a4096b0e
DTITLE=Connors, Stompin' Tom - Cdn. - Cty/folk - At the Gumboot Clogeroo
DYEAR=1900
DGENRE=Country
TTITLE0=Ledgend of Marty Joe
TTITLE1=Jacqueline
TTITLE2=The I Don't Know How To Fix Damed Thing Blues
TTITLE3=Man of the Land
TTITLE4=Farewell To Nova Scotia
TTITLE5=Ripped Off Winkle
TTITLE6=Gum Boot Clogeroo - Gum Boot Clogging
TTITLE7=The Happy Hooker
TTITLE8=We Doubt Each Others Love
TTITLE9=Little Old foregtful Me
TTITLE10=The Singer
TTITLE11=Isle of Newfoundland
TTITLE12=Roses In the Snow
TTITLE13=Home On the Island
EXTD=
EXTT0=
EXTT1=
EXTT2=
EXTT3=
EXTT4=
EXTT5=
EXTT6=
EXTT7=
EXTT8=
EXTT9=
EXTT10=
EXTT11=
EXTT12=
EXTT13=
PLAYORDER=
